<svg width="20" height="20" viewBox="0 0 20 20" fill="none" xmlns="http://www.w3.org/2000/svg">
<mask id="path-1-inside-1" fill="white">
<path d="M16.6665 2.5H2.49984C2.0415 2.5 1.6665 2.875 1.6665 3.33333V8.33333C1.6665 8.79167 2.0415 9.16667 2.49984 9.16667H16.6665C17.1248 9.16667 17.4998 8.79167 17.4998 8.33333V3.33333C17.4998 2.875 17.1248 2.5 16.6665 2.5ZM16.6665 10.8333H2.49984C2.0415 10.8333 1.6665 11.2083 1.6665 11.6667V16.6667C1.6665 17.125 2.0415 17.5 2.49984 17.5H16.6665C17.1248 17.5 17.4998 17.125 17.4998 16.6667V11.6667C17.4998 11.2083 17.1248 10.8333 16.6665 10.8333Z"/>
</mask>
<path d="M16.6665 2.5H2.49984C2.0415 2.5 1.6665 2.875 1.6665 3.33333V8.33333C1.6665 8.79167 2.0415 9.16667 2.49984 9.16667H16.6665C17.1248 9.16667 17.4998 8.79167 17.4998 8.33333V3.33333C17.4998 2.875 17.1248 2.5 16.6665 2.5ZM16.6665 10.8333H2.49984C2.0415 10.8333 1.6665 11.2083 1.6665 11.6667V16.6667C1.6665 17.125 2.0415 17.5 2.49984 17.5H16.6665C17.1248 17.5 17.4998 17.125 17.4998 16.6667V11.6667C17.4998 11.2083 17.1248 10.8333 16.6665 10.8333Z" stroke="#C2CFE0" stroke-width="2.8" mask="url(#path-1-inside-1)"/>
</svg>
