<svg width="20" height="20" viewBox="0 0 20 20" fill="none" xmlns="http://www.w3.org/2000/svg">
<path d="M5.00016 8.33325C4.0835 8.33325 3.3335 9.08325 3.3335 9.99992C3.3335 10.9166 4.0835 11.6666 5.00016 11.6666C5.91683 11.6666 6.66683 10.9166 6.66683 9.99992C6.66683 9.08325 5.91683 8.33325 5.00016 8.33325ZM15.0002 8.33325C14.0835 8.33325 13.3335 9.08325 13.3335 9.99992C13.3335 10.9166 14.0835 11.6666 15.0002 11.6666C15.9168 11.6666 16.6668 10.9166 16.6668 9.99992C16.6668 9.08325 15.9168 8.33325 15.0002 8.33325ZM10.0002 8.33325C9.0835 8.33325 8.3335 9.08325 8.3335 9.99992C8.3335 10.9166 9.0835 11.6666 10.0002 11.6666C10.9168 11.6666 11.6668 10.9166 11.6668 9.99992C11.6668 9.08325 10.9168 8.33325 10.0002 8.33325Z" fill="#C2CFE0"/>
</svg>
