<svg width="0" height="0" class="hidden">
  <symbol fill="none" xmlns="http://www.w3.org/2000/svg" viewBox="0 0 24 24" id="notification">
    <path d="M20.222 18.381a.863.863 0 01-.029-.585c.483-1.368.977-2.729 1.49-4.087.548-1.443.973-2.895.76-4.471-.243-1.79-.978-3.341-2.3-4.565-.646-.596-1.402-1.063-2.15-1.62.057-.159.15-.406.242-.653.149-.408.034-.727-.31-.854-.352-.13-.648.016-.813.412-.108.255-.204.512-.31.775-.998-.244-1.984-.343-2.985-.199-2.983.428-5.136 1.992-6.3 4.784-.713 1.716-1.301 3.484-1.935 5.232a.695.695 0 01-.408.436c-1.06.475-2.114.965-3.175 1.447-.283.128-.494.308-.487.644.007.348.252.487.54.59 1.98.71 3.955 1.428 5.94 2.124.298.106.4.223.384.552-.1 2.203 1.966 3.845 4.104 3.286.866-.226 1.526-.732 2.023-1.486.103.036.197.07.29.1 2.012.72 4.023 1.44 6.034 2.166.302.108.58.153.83-.104.26-.268.152-.544.017-.828a117.382 117.382 0 01-1.452-3.096zM11.12 20.46c-.957-.276-1.591-1.135-1.524-2.114 1.253.446 2.48.885 3.71 1.324-.35.672-1.355 1.03-2.186.79z" fill="#CACCCF"></path>
  </symbol>
  <symbol fill="none" xmlns="http://www.w3.org/2000/svg" viewBox="0 0 20 20" id="settings">
    <path d="M5 8.333c-.917 0-1.667.75-1.667 1.667s.75 1.667 1.667 1.667 1.667-.75 1.667-1.667S5.917 8.333 5 8.333zm10 0c-.916 0-1.666.75-1.666 1.667s.75 1.667 1.666 1.667c.917 0 1.667-.75 1.667-1.667S15.917 8.333 15 8.333zm-5 0c-.916 0-1.666.75-1.666 1.667s.75 1.667 1.666 1.667c.917 0 1.667-.75 1.667-1.667S10.917 8.333 10 8.333z" fill="#C2CFE0"></path>
  </symbol>
  <symbol fill="none" xmlns="http://www.w3.org/2000/svg" viewBox="0 0 20 20" id="tasks">
    <mask id="a" fill="#fff">
      <path d="M16.666 2.5H2.5a.836.836 0 00-.833.833v5c0 .459.375.834.833.834h14.166a.836.836 0 00.834-.834v-5a.836.836 0 00-.834-.833zm0 8.333H2.5a.836.836 0 00-.833.834v5c0 .458.375.833.833.833h14.166a.836.836 0 00.834-.833v-5a.836.836 0 00-.834-.834z"></path>
    </mask>
    <path d="M16.666 2.5H2.5a.836.836 0 00-.833.833v5c0 .459.375.834.833.834h14.166a.836.836 0 00.834-.834v-5a.836.836 0 00-.834-.833zm0 8.333H2.5a.836.836 0 00-.833.834v5c0 .458.375.833.833.833h14.166a.836.836 0 00.834-.833v-5a.836.836 0 00-.834-.834z" stroke="#C2CFE0" stroke-width="2.8" mask="url(#a)"></path>
  </symbol>
  <symbol fill="none" xmlns="http://www.w3.org/2000/svg" viewBox="0 0 10 6" id="arrow">
    <path d="M5.079 1.512l3.5 3.5a.513.513 0 10.725-.726L5.441.423a.512.512 0 00-.725 0L.853 4.286h0a.513.513 0 10.726.726l3.5-3.5z" fill="#454" stroke="#454" stroke-width=".324"></path>
  </symbol>
  <symbol fill="none" xmlns="http://www.w3.org/2000/svg" viewBox="0 0 7 10" id="arrow-white">
    <path d="M5.16 8.866h0a.592.592 0 10.837-.837L2.653 4.684 5.997 1.34A.592.592 0 105.16.502L1.397 4.265a.591.591 0 000 .838L5.16 8.866z" fill="#fff" stroke="#fff" stroke-width=".5"></path>
  </symbol>
  <symbol fill="none" xmlns="http://www.w3.org/2000/svg" viewBox="0 0 20 20" id="chat">
    <g clip-path="url(#clip0)">
      <path d="M5 14.3h-.29l-.205.205-2.139 2.138V3.333c0-.53.437-.966.967-.966h13.334a.97.97 0 01.966.966v10c0 .53-.436.967-.966.967H5z" stroke="#C2CFE0" stroke-width="1.4"></path>
    </g>
    <defs>
      <clipPath id="clip0">
        <path fill="#fff" d="M0 0h20v20H0z"></path>
      </clipPath>
    </defs>
  </symbol>
  <symbol fill="none" xmlns="http://www.w3.org/2000/svg" viewBox="0 0 12 12" id="close">
    <g clip-path="url(#clip0)">
      <path d="M4.9 6.01L.229 1.339a.776.776 0 111.1-1.1L6 4.912 10.673.24a.777.777 0 111.099 1.099L7.099 6.011l4.673 4.672a.776.776 0 11-1.1 1.1L6 7.11l-4.673 4.673a.775.775 0 01-1.099 0 .776.776 0 010-1.1l4.673-4.672z" fill="#78809D"></path>
    </g>
    <defs>
      <clipPath id="clip0">
        <path fill="#fff" transform="matrix(-1 0 0 1 12 0)" d="M0 0h12v12H0z"></path>
      </clipPath>
    </defs>
  </symbol>
  <symbol fill="none" xmlns="http://www.w3.org/2000/svg" viewBox="0 0 20 20" id="contacts-active">
    <path d="M6.811 6.111A3.188 3.188 0 0110 2.922a3.188 3.188 0 013.189 3.19A3.188 3.188 0 0110 9.3a3.188 3.188 0 01-3.189-3.189zm-3.889 8.75c0-.39.19-.782.625-1.184.44-.406 1.084-.773 1.85-1.08 1.537-.616 3.393-.925 4.603-.925s3.066.31 4.602.925c.767.307 1.41.674 1.85 1.08.436.402.626.795.626 1.184v2.217H2.922V14.86z" stroke="#C2CFE0" stroke-width="1.4"></path>
  </symbol>
  <symbol fill="none" xmlns="http://www.w3.org/2000/svg" viewBox="0 0 20 20" id="dashboard">
    <mask id="a" fill="#fff">
      <path d="M2.5 9.833a1 1 0 001 1h4.667a1 1 0 001-1V3.5a1 1 0 00-1-1H3.5a1 1 0 00-1 1v6.333zm0 6.667a1 1 0 001 1h4.667a1 1 0 001-1v-3a1 1 0 00-1-1H3.5a1 1 0 00-1 1v3zm8.333 0a1 1 0 001 1H16.5a1 1 0 001-1v-6.333a1 1 0 00-1-1h-4.667a1 1 0 00-1 1V16.5zm1-14a1 1 0 00-1 1v3a1 1 0 001 1H16.5a1 1 0 001-1v-3a1 1 0 00-1-1h-4.667z"></path>
    </mask>
    <path d="M2.5 9.833a1 1 0 001 1h4.667a1 1 0 001-1V3.5a1 1 0 00-1-1H3.5a1 1 0 00-1 1v6.333zm0 6.667a1 1 0 001 1h4.667a1 1 0 001-1v-3a1 1 0 00-1-1H3.5a1 1 0 00-1 1v3zm8.333 0a1 1 0 001 1H16.5a1 1 0 001-1v-6.333a1 1 0 00-1-1h-4.667a1 1 0 00-1 1V16.5zm1-14a1 1 0 00-1 1v3a1 1 0 001 1H16.5a1 1 0 001-1v-3a1 1 0 00-1-1h-4.667z" stroke="#4F9BFF" stroke-width="2.8" mask="url(#a)"></path>
  </symbol>
  <symbol fill="none" xmlns="http://www.w3.org/2000/svg" viewBox="0 0 20 20" id="deals">
    <path d="M2.5 4.033h15c.072 0 .133.062.133.134v11.666a.136.136 0 01-.133.134h-15a.136.136 0 01-.134-.134V4.167c0-.072.062-.134.134-.134z" stroke="#C2CFE0" stroke-width="1.4"></path>
    <path fill="#C2CFE0" d="M6.5 3.333h1.167v13.333H6.5zm5.834 0h1.167v13.333h-1.167z"></path>
  </symbol>
  <symbol fill="none" xmlns="http://www.w3.org/2000/svg" viewBox="0 0 20 20" id="email">
    <path d="M2.375 5v0c0-.535.433-.967.958-.967h13.334c.53 0 .966.437.966.967v10c0 .53-.436.967-.966.967H3.332A.972.972 0 012.366 15s0 0 0 0l.009-10z" stroke="#C2CFE0" stroke-width="1.4"></path>
    <path d="M2.5 5l7.5 5 7.5-5" stroke="#C2CFE0" stroke-width="1.4"></path>
  </symbol>
  <symbol fill="none" xmlns="http://www.w3.org/2000/svg" viewBox="0 0 12 13" id="info">
    <path d="M5.1 11.623a.462.462 0 01-.463.462H2.604a1.85 1.85 0 01-1.849-1.849V2.103c0-1.02.83-1.849 1.849-1.849h5.681c1.02 0 1.849.83 1.849 1.849v4.413a.462.462 0 01-.925 0V2.103a.925.925 0 00-.924-.924H2.604a.925.925 0 00-.925.924v8.133c0 .51.415.925.925.925h2.033c.255 0 .462.206.462.462zm2.723-8.596h-4.76a.462.462 0 100 .924h4.76a.462.462 0 000-.924zm.462 2.31a.462.462 0 00-.462-.461h-4.76a.462.462 0 100 .924h4.76a.462.462 0 00.462-.462zM3.063 6.725a.462.462 0 100 .924h2.429a.462.462 0 100-.924H3.063zm8.214 3.385a3.814 3.814 0 01-.107.146c-.155.194-.517.65-1.02 1.052-.647.516-1.312.778-1.978.778-.665 0-1.33-.262-1.977-.778a6.47 6.47 0 01-1.02-1.052 3.905 3.905 0 01-.107-.146.462.462 0 010-.531c.016-.023.072-.102.106-.146.155-.194.517-.65 1.021-1.052.647-.516 1.312-.778 1.977-.778.666 0 1.33.262 1.977.778.504.402.867.858 1.021 1.052.035.044.09.123.107.146a.462.462 0 010 .531zm-.964-.266c-.735-.874-1.454-1.317-2.14-1.317-.687 0-1.407.443-2.141 1.317.734.875 1.454 1.318 2.14 1.318.687 0 1.406-.443 2.14-1.318zm-2.118-.878a.878.878 0 100 1.756.878.878 0 000-1.756z" fill="#507FF9"></path>
  </symbol>
  <symbol fill="none" xmlns="http://www.w3.org/2000/svg" viewBox="0 0 14 10" id="mail">
    <path d="M12.316.254H1.87c-.613 0-1.114.5-1.114 1.114v7.427c0 .612.498 1.114 1.114 1.114h10.447c.612 0 1.114-.498 1.114-1.114V1.368c0-.612-.498-1.114-1.114-1.114zm-.153.743L7.116 6.043 2.026.997h10.137zM1.498 8.642V1.519l3.577 3.546-3.577 3.577zm.525.525l3.579-3.58 1.254 1.244a.37.37 0 00.524-.001l1.223-1.223 3.56 3.56H2.023zm10.665-.525l-3.56-3.56 3.56-3.56v7.12z" fill="#507FF9"></path>
  </symbol>
</svg>